<svg xmlns="http://www.w3.org/2000/svg" viewBox="0 0 320 320">
  <defs>
    <linearGradient id="bg" x1="0" y1="0" x2="1" y2="1">
      <stop offset="0%" stop-color="#f5f9ff" />
      <stop offset="100%" stop-color="#ebf3ff" />
    </linearGradient>
  </defs>
  <rect width="320" height="320" rx="32" ry="32" fill="url(#bg)" />
  <rect x="42" y="42" width="72" height="72" fill="#0b2852" rx="12" />
  <rect x="206" y="42" width="72" height="72" fill="#0b2852" rx="12" />
  <rect x="42" y="206" width="72" height="72" fill="#0b2852" rx="12" />
  <rect x="206" y="206" width="72" height="72" fill="#0b2852" rx="12" />
  <rect x="94" y="94" width="36" height="36" fill="#ffffff" rx="6" />
  <rect x="258" y="94" width="36" height="36" fill="#ffffff" rx="6" />
  <rect x="94" y="258" width="36" height="36" fill="#ffffff" rx="6" />
  <rect x="258" y="258" width="36" height="36" fill="#ffffff" rx="6" />
  <rect x="140" y="140" width="40" height="40" fill="#0b2852" rx="6" />
  <rect x="180" y="180" width="28" height="28" fill="#0b2852" rx="4" />
  <rect x="140" y="200" width="24" height="24" fill="#0b2852" rx="4" />
  <rect x="200" y="140" width="24" height="24" fill="#0b2852" rx="4" />
  <rect x="120" y="176" width="20" height="20" fill="#0b2852" rx="4" />
  <rect x="176" y="120" width="20" height="20" fill="#0b2852" rx="4" />
  <rect x="118" y="118" width="16" height="16" fill="#0b2852" rx="4" />
  <rect x="222" y="222" width="14" height="14" fill="#0b2852" rx="3" />
  <rect x="240" y="180" width="18" height="18" fill="#0b2852" rx="3" />
  <rect x="180" y="240" width="18" height="18" fill="#0b2852" rx="3" />
  <text x="50%" y="92%" text-anchor="middle" font-size="28" font-family="'Helvetica Neue', Arial, sans-serif" fill="#215693">
    Scan QR to top up
  </text>
</svg>
